<svg width="12" height="11" viewBox="0 0 12 11" fill="none" xmlns="http://www.w3.org/2000/svg">
<path d="M7.86111 4.4623e-09C8.65128 5.39731e-09 9.38182 0.420219 9.7791 1.10325L11.6504 4.32053C12.0515 5.01016 12.0515 5.86203 11.6504 6.55165L9.7791 9.76893C9.38182 10.452 8.65128 10.8722 7.86111 10.8722H4.09009C3.29992 10.8722 2.56938 10.452 2.17211 9.76893L0.300831 6.55165C-0.100277 5.86203 -0.100277 5.01016 0.300831 4.32053L2.17211 1.10325C2.56938 0.420219 3.29992 -9.35015e-10 4.09009 0L7.86111 4.4623e-09Z" fill="#1386F5"/>
<path fill-rule="evenodd" clip-rule="evenodd" d="M8.08331 7.10045C8.28119 7.24505 8.32635 7.52579 8.15513 7.70116C6.96609 8.91903 4.98479 8.91903 3.79575 7.70116C3.62453 7.52579 3.66969 7.24505 3.86757 7.10045C4.06545 6.95585 4.34049 7.0037 4.52185 7.16855C5.34101 7.9132 6.60987 7.9132 7.42903 7.16855C7.61039 7.0037 7.88543 6.95585 8.08331 7.10045Z" fill="white"/>
</svg>
