<svg width="39" height="39" viewBox="0 0 39 39" fill="none" xmlns="http://www.w3.org/2000/svg">
<path d="M34.1346 19.3529C34.1346 11.2551 27.5698 4.69043 19.4716 4.69043C11.3734 4.69043 4.80859 11.2551 4.80859 19.3529C4.80859 27.4508 11.3734 34.0154 19.4716 34.0154C27.5698 34.0154 34.1346 27.4508 34.1346 19.3529Z" fill="white"/>
<path d="M22.7208 22.3169C22.7208 22.3169 22.7635 22.2863 22.8326 22.2338C23.8645 21.4353 24.5115 20.2788 24.5115 18.9916C24.5115 16.5912 22.2546 14.6436 19.4723 14.6436C16.6888 14.6436 14.4307 16.5912 14.4307 18.9916C14.4307 21.3932 16.6875 23.2736 19.4711 23.2736C19.7087 23.2736 20.0985 23.2577 20.6405 23.2266C21.3473 23.686 22.3786 24.0623 23.2816 24.0623C23.5608 24.0623 23.6928 23.8332 23.5138 23.5986C23.2413 23.265 22.8662 22.7305 22.7208 22.3162V22.3169Z" stroke="#333461" stroke-width="2" stroke-linecap="round" stroke-linejoin="round"/>
<path d="M16.9512 20.1934C18.3515 21.5936 20.5913 21.5936 21.9916 20.1934" stroke="#20AD96" stroke-width="1.5" stroke-linecap="round" stroke-linejoin="round"/>
<path d="M34.1346 19.3529C34.1346 11.2551 27.5698 4.69043 19.4716 4.69043C11.3734 4.69043 4.80859 11.2551 4.80859 19.3529C4.80859 27.4508 11.3734 34.0154 19.4716 34.0154C27.5698 34.0154 34.1346 27.4508 34.1346 19.3529Z" stroke="white" stroke-width="8"/>
</svg>
